<?xml version="1.0" encoding="utf-8"?>
<!-- Generator: Adobe Illustrator 28.3.0, SVG Export Plug-In . SVG Version: 6.00 Build 0)  -->
<svg version="1.1" id="레이어_1" xmlns="http://www.w3.org/2000/svg" xmlns:xlink="http://www.w3.org/1999/xlink" x="0px"
	 y="0px" viewBox="0 0 595.28 841.89" style="enable-background:new 0 0 595.28 841.89;" xml:space="preserve">
<style type="text/css">
	.st0{fill:#F6DE53;stroke:#000000;stroke-width:12;stroke-miterlimit:10;}
	.st1{fill:#C24C8F;}
	.st2{fill:#FFFFFF;}
	.st3{fill:none;stroke:#000000;stroke-width:12;stroke-miterlimit:10;}
</style>
<path class="st0" d="M385.83,303.85c-3.8,0-7.48-0.92-10.91-2.72l-52.99-27.86c-0.49-0.26-1.05-0.4-1.6-0.4
	c-0.56,0-1.11,0.14-1.6,0.4l-52.99,27.86c-3.44,1.81-7.11,2.72-10.91,2.72c-6.92,0-13.47-3.07-17.98-8.41
	c-4.43-5.26-6.3-12.2-5.13-19.03l10.12-59c0.19-1.12-0.18-2.26-0.99-3.05l-42.87-41.79c-6.44-6.27-8.71-15.48-5.93-24.04
	c2.78-8.55,10.03-14.67,18.93-15.96l59.24-8.61c1.12-0.16,2.09-0.87,2.59-1.89L299.3,68.4c3.98-8.06,12.04-13.07,21.03-13.07
	s17.05,5.01,21.03,13.07l26.49,53.68c0.5,1.02,1.47,1.72,2.59,1.88l59.24,8.61c8.9,1.29,16.15,7.41,18.93,15.96
	c2.78,8.55,0.5,17.76-5.93,24.04l-42.87,41.79c-0.81,0.79-1.18,1.93-0.99,3.05l10.12,59c1.17,6.84-0.7,13.77-5.13,19.03
	C399.3,300.79,392.75,303.85,385.83,303.85z"/>
<path class="st1" d="M331.75,596.12h-22.84c-8.25,0-14.94-6.69-14.94-14.94V282.57c0-8.25,6.69-14.94,14.94-14.94h22.84
	c8.25,0,14.94,6.69,14.94,14.94v298.61C346.68,589.43,340,596.12,331.75,596.12z"/>
<path class="st2" d="M313.17,303.5c-7.26,3.86-13.87,7.72-19.2,11.14v49.27l1.7,4.99c-0.81-2.37,13.63-12.31,32.24-22.2
	c6.85-3.64,13.3-6.76,18.77-9.14v-48.16C342.09,289.7,328.62,295.29,313.17,303.5z"/>
<path class="st2" d="M313.17,390.37c-7.26,3.86-13.87,7.72-19.2,11.14v49.27l1.7,4.99c-0.81-2.37,13.63-12.31,32.24-22.2
	c6.85-3.64,13.3-6.76,18.77-9.14v-48.16C342.09,376.56,328.62,382.15,313.17,390.37z"/>
<path class="st2" d="M313.17,477.23c-7.26,3.86-13.87,7.72-19.2,11.14v49.27l1.7,4.99c-0.81-2.37,13.63-12.31,32.24-22.2
	c6.85-3.64,13.3-6.76,18.77-9.14v-48.16C342.09,463.42,328.62,469.02,313.17,477.23z"/>
<g>
	<path class="st2" d="M308.91,596.12h22.84c8.25,0,14.94-6.69,14.94-14.94v-31.21c-4.6,0.31-18.06,5.91-33.51,14.12
		c-7.26,3.86-13.87,7.72-19.2,11.14v5.95C293.97,589.43,300.66,596.12,308.91,596.12z"/>
</g>
<path class="st3" d="M331.75,596.12h-22.84c-8.25,0-14.94-6.69-14.94-14.94V282.57c0-8.25,6.69-14.94,14.94-14.94h22.84
	c8.25,0,14.94,6.69,14.94,14.94v298.61C346.68,589.43,340,596.12,331.75,596.12z"/>
</svg>
